<svg width="466" height="70" viewBox="0 0 466 70" fill="none" xmlns="http://www.w3.org/2000/svg">
<path d="M0 15.3548H38.961L31.1728 23.2088H7.79821V46.7811H38.971L31.1828 54.6352H0.0100203V15.3548H0Z" fill="white"/>
<path d="M81.0351 54.6452V38.9271L65.4487 15.3548H75.189L84.9292 29.1044L94.7896 15.3548H104.41L88.8233 38.9271V54.6452H81.0351Z" fill="white"/>
<path d="M162.201 38.9271H169.869V54.6452H130.908V15.3548H169.869V31.073L162.201 38.9271ZM162.08 31.073V23.2189H138.706V31.073H162.08ZM138.696 38.9271V46.7811H162.07V38.9271H138.696Z" fill="white"/>
<path d="M204.155 31.073H235.327L227.539 38.9271H204.155V46.7811H235.327L227.539 54.6352H196.366V15.3447H235.327L227.539 23.1988H204.155V31.073Z" fill="white"/>
<path d="M292.988 31.073V23.2189H269.613V54.6553H261.825V15.3649H300.786V38.9371H287.032L300.786 54.6553H291.166L270.594 31.0831H292.988V31.073Z" fill="white"/>
<path d="M388.869 70H319.456V0H388.869V70ZM334.882 54.4433H373.443V15.5567H334.882V54.4433ZM365.734 46.6599H342.6V23.33H365.734V46.6599Z" fill="white"/>
<path d="M466 70H396.587V0H466V70ZM419.721 54.4433V38.8866L439.242 54.4433H450.564L427.429 35.4846L450.564 15.5567H439.362L419.721 31.1134V15.5567H412.013V54.4433H419.721Z" fill="white"/>
</svg>
