<svg width="285" height="70" viewBox="0 0 285 70" fill="none" xmlns="http://www.w3.org/2000/svg">
<path d="M176.692 0H176.534C174.639 0 174.324 0.484988 174.324 2.42494V40.739C174.324 41.709 174.166 41.8707 173.218 41.8707H168.323C167.376 41.8707 167.218 41.709 167.218 40.739V2.42494C167.218 0.484988 166.902 0 165.007 0H164.849C162.955 0 162.639 0.484988 162.639 2.42494V40.739C162.639 41.709 162.481 41.8707 161.534 41.8707H156.481C155.533 41.8707 155.375 41.709 155.375 40.739V2.42494C155.375 0.484988 155.06 0 153.165 0H153.007C151.112 0 150.796 0.484988 150.796 2.42494V43.9723C150.796 45.9122 151.112 46.3972 153.007 46.3972H177.166C179.061 46.3972 179.376 45.9122 179.376 43.9723V2.42494C178.903 0.484988 178.587 0 176.692 0Z" fill="white"/>
<path d="M221.694 0H218.694C213.167 0 210.167 3.55658 210.167 8.40646V37.8291C210.167 42.679 213.167 46.2355 218.694 46.2355H221.694C227.221 46.2355 230.221 42.679 230.221 37.8291V8.40646C230.221 3.55658 227.379 0 221.694 0ZM225.642 37.8291C225.642 40.5773 224.694 41.8707 221.852 41.8707H218.852C216.168 41.8707 215.062 40.5773 215.062 37.8291V8.40646C215.062 5.6582 216.01 4.36489 218.852 4.36489H221.852C224.536 4.36489 225.642 5.6582 225.642 8.40646V37.8291Z" fill="white"/>
<path d="M254.854 0.322937H243.327C241.748 0.322937 241.116 0.807925 240.958 2.74788C240.484 12.771 240.169 18.7525 239.695 28.7756C239.379 35.8887 237.958 40.7386 234.8 42.1936C233.063 43.0019 232.747 43.3252 233.379 44.9418L233.537 45.2652C234.168 46.7201 234.958 46.8818 236.379 46.2351C242.063 44.1335 244.116 36.2121 244.432 28.7756C244.906 19.7225 245.221 14.0643 245.537 5.81947C245.537 4.84949 245.853 4.68783 246.801 4.68783H251.222C252.169 4.68783 252.327 4.84949 252.327 5.81947V43.8102C252.327 45.7502 252.643 46.2351 254.538 46.2351H254.696C256.59 46.2351 256.906 45.7502 256.906 43.8102V2.74788C257.064 0.807925 256.748 0.322937 254.854 0.322937Z" fill="white"/>
<path d="M284.697 43.9723C283.592 30.0693 282.802 21.6628 281.697 7.75981C281.223 3.07159 278.223 0 273.96 0C269.696 0 266.538 3.07159 266.222 7.75981C265.117 21.6628 264.328 30.0693 263.222 43.9723C263.064 45.9122 263.38 46.3972 265.275 46.3972H265.433C267.328 46.3972 267.801 45.9122 267.959 43.9723C268.275 40.739 268.433 37.9907 268.749 35.2425C268.907 34.2725 269.065 34.1108 270.012 34.1108H278.223C279.17 34.1108 279.328 34.2725 279.486 35.2425C279.644 37.9907 279.96 40.739 280.276 43.9723C280.434 45.9122 280.907 46.3972 282.802 46.3972H282.96C284.539 46.2355 284.855 45.9122 284.697 43.9723ZM270.328 29.5843C269.38 29.5843 269.223 29.4226 269.223 28.4526C269.696 21.9861 270.328 15.8429 270.96 7.59815C271.117 5.6582 272.381 4.20323 273.96 4.20323C275.697 4.20323 276.802 5.49653 276.96 7.59815C277.591 15.6813 278.065 21.8245 278.697 28.4526C278.697 29.4226 278.539 29.5843 277.591 29.5843H270.328Z" fill="white"/>
<path d="M206.22 44.1339C201.641 31.0392 197.693 19.7229 197.693 19.7229L204.483 2.42494C205.114 0.808314 204.957 0.161663 202.746 0.161663H202.588C200.851 0.161663 200.219 0.64665 199.588 2.26328L193.114 18.9145C192.166 19.5612 191.219 20.3695 190.272 21.0162V2.42494C190.272 0.484988 189.956 0 188.061 0H187.903C186.008 0 185.692 0.484988 185.692 2.42494V43.9723C185.692 45.9122 186.008 46.3972 187.903 46.3972H188.061C189.956 46.3972 190.272 45.9122 190.272 43.9723V26.5127C191.693 25.5427 192.956 24.5727 194.377 23.6028C198.009 33.7875 197.219 32.0092 201.483 44.1339C202.114 45.9122 202.746 46.3972 204.641 46.3972H204.799C206.536 46.2355 206.851 45.9122 206.22 44.1339Z" fill="white"/>
<path d="M125.374 0.322937H8.6846C1.57902 0.322937 0 1.7779 0 9.21439V60.9465C0 68.2213 1.42112 69.8379 8.6846 69.8379H125.374C132.48 69.8379 134.059 68.3829 134.059 60.9465V9.21439C133.901 1.93957 132.48 0.322937 125.374 0.322937ZM32.5278 21.1774C32.5278 17.4592 33.3173 16.8125 36.7911 16.8125H48.4758C52.1076 16.8125 52.7392 17.6208 52.7392 21.1774V32.8171C52.7392 36.5354 51.9497 37.182 48.4758 37.182H36.7911C33.1594 37.182 32.5278 36.3737 32.5278 32.8171V21.1774ZM8.05299 21.1774C8.05299 17.4592 8.8425 16.8125 12.3163 16.8125H24.0011C27.6328 16.8125 28.2644 17.6208 28.2644 21.1774V32.8171C28.2644 36.5354 27.4749 37.182 24.0011 37.182H12.3163C8.6846 37.182 8.05299 36.3737 8.05299 32.8171V21.1774ZM77.0561 57.2282C77.0561 60.9465 76.2666 61.5931 72.7927 61.5931H12.4742C8.8425 61.5931 8.21089 60.7848 8.21089 57.2282V45.5885C8.21089 41.8703 9.0004 41.2236 12.4742 41.2236H72.9506C76.5824 41.2236 77.214 42.0319 77.214 45.5885V57.2282H77.0561ZM77.0561 32.6555C77.0561 36.3737 76.2666 37.0204 72.7927 37.0204H61.108C57.4763 37.0204 56.8446 36.2121 56.8446 32.6555V21.0158C56.8446 17.2975 57.6342 16.6509 61.108 16.6509H72.7927C76.4245 16.6509 77.0561 17.4592 77.0561 21.0158V32.6555ZM101.531 57.2282C101.531 60.9465 100.741 61.5931 97.2675 61.5931H85.5828C81.951 61.5931 81.3194 60.7848 81.3194 57.2282V45.5885C81.3194 41.8703 82.1089 41.2236 85.5828 41.2236H97.2675C100.899 41.2236 101.531 42.0319 101.531 45.5885V57.2282ZM125.848 57.2282C125.848 60.9465 125.058 61.5931 121.584 61.5931H109.9C106.268 61.5931 105.636 60.7848 105.636 57.2282V45.5885C105.636 41.8703 106.426 41.2236 109.9 41.2236H121.584C125.216 41.2236 125.848 42.0319 125.848 45.5885V57.2282ZM125.848 32.6555C125.848 36.3737 125.058 37.0204 121.584 37.0204H85.5828C81.951 37.0204 81.3194 36.2121 81.3194 32.6555V21.0158C81.3194 17.2975 82.1089 16.6509 85.5828 16.6509H121.584C125.216 16.6509 125.848 17.4592 125.848 21.0158V32.6555Z" fill="white"/>
<path d="M174.639 51.5704H173.534C171.323 51.5704 170.218 53.0254 170.218 54.9653V66.605C170.218 68.545 171.323 69.9999 173.534 69.9999H174.639C176.85 69.9999 177.955 68.545 177.955 66.605V54.9653C177.955 53.0254 176.85 51.5704 174.639 51.5704ZM176.218 66.605C176.218 67.7367 175.745 68.2217 174.797 68.2217H173.534C172.429 68.2217 172.113 67.7367 172.113 66.605V54.9653C172.113 53.8337 172.587 53.3487 173.534 53.3487H174.797C175.903 53.3487 176.218 53.8337 176.218 54.9653V66.605Z" fill="white"/>
<path d="M157.112 51.7321H151.112C150.322 51.7321 150.165 51.8937 150.165 52.702V69.03C150.165 69.8383 150.322 70 151.112 70C151.902 70 152.059 69.8383 152.059 69.03V53.9953C152.059 53.672 152.217 53.5103 152.533 53.5103H155.691C156.007 53.5103 156.165 53.672 156.165 53.9953V69.03C156.165 69.8383 156.323 70 157.112 70C157.902 70 158.06 69.8383 158.06 69.03V52.702C158.06 51.8937 157.902 51.7321 157.112 51.7321Z" fill="white"/>
<path d="M186.956 51.7321H181.587C180.955 51.7321 180.798 51.8937 180.798 52.702V69.03C180.798 69.8383 180.955 70 181.745 70C182.534 70 182.692 69.8383 182.692 69.03V53.9953C182.692 53.672 182.85 53.5103 183.166 53.5103H187.114C187.745 53.5103 187.903 53.3487 187.903 52.702C187.745 51.8937 187.587 51.7321 186.956 51.7321Z" fill="white"/>
<path d="M264.486 53.5104C265.117 53.5104 265.275 53.3487 265.275 52.7021C265.275 52.0554 265.117 51.8938 264.486 51.8938H257.38C256.748 51.8938 256.59 52.0554 256.59 52.7021C256.59 53.3487 256.748 53.5104 257.38 53.5104H259.591C259.906 53.5104 260.064 53.6721 260.064 53.9954V69.03C260.064 69.8383 260.222 70 261.012 70C261.801 70 261.959 69.8383 261.959 69.03V53.9954C261.959 53.6721 261.959 53.5104 262.433 53.5104H264.486Z" fill="white"/>
<path d="M270.96 51.5704H269.854C267.644 51.5704 266.538 53.0254 266.538 54.9653V66.605C266.538 68.545 267.644 69.9999 269.854 69.9999H270.96C273.17 69.9999 274.275 68.545 274.275 66.605V54.9653C274.275 53.0254 273.17 51.5704 270.96 51.5704ZM272.539 66.605C272.539 67.7367 272.065 68.2217 271.117 68.2217H269.854C268.749 68.2217 268.433 67.7367 268.433 66.605V54.9653C268.433 53.8337 268.907 53.3487 269.854 53.3487H271.117C272.223 53.3487 272.539 53.8337 272.539 54.9653V66.605Z" fill="white"/>
<path d="M253.59 54.9653C253.59 55.7736 253.748 55.9353 254.538 55.9353C255.327 55.9353 255.485 55.7736 255.485 54.9653C255.485 53.0254 254.38 51.5704 252.169 51.5704H250.906C248.695 51.5704 247.59 53.0254 247.59 54.9653V66.605C247.59 68.545 248.695 69.9999 250.906 69.9999H252.169C254.38 69.9999 255.485 68.545 255.485 66.605V65.3117C255.485 64.5034 255.327 64.3418 254.538 64.3418C253.748 64.3418 253.59 64.5034 253.59 65.3117V66.605C253.59 67.7367 253.117 68.2217 252.169 68.2217H250.748C249.643 68.2217 249.327 67.7367 249.327 66.605V54.9653C249.327 53.8337 249.801 53.3487 250.748 53.3487H252.169C253.117 53.3487 253.59 53.8337 253.59 54.9653Z" fill="white"/>
<path d="M164.534 51.7321H161.534C160.902 51.7321 160.744 51.8937 160.744 52.702V69.03C160.744 69.8383 160.902 70 161.691 70C162.481 70 162.639 69.8383 162.639 69.03V63.8568H164.692C166.902 63.8568 168.007 62.4018 168.007 60.4619V55.127C167.85 53.0254 166.744 51.7321 164.534 51.7321ZM164.534 53.5103C165.639 53.5103 165.955 53.9953 165.955 55.127V60.4619C165.955 61.5935 165.481 62.0785 164.534 62.0785H162.955C162.639 62.0785 162.481 61.9168 162.481 61.5935V53.9953C162.481 53.672 162.481 53.5103 162.955 53.5103H164.534Z" fill="white"/>
<path d="M232.274 51.5704C231.8 51.5704 231.484 51.8937 231.168 52.5404C229.589 55.4503 228.326 58.0369 228.326 58.0369L227.852 59.3302L227.379 58.0369C227.379 58.0369 225.957 55.4503 224.536 52.5404C224.221 51.8937 223.747 51.5704 223.431 51.5704C222.799 51.5704 222.642 51.7321 222.642 52.5404V69.03C222.642 69.8383 222.799 69.9999 223.589 69.9999C224.378 69.9999 224.536 69.8383 224.536 69.03V60.3002L224.378 56.097L224.852 57.3903C224.852 57.3903 225.8 59.1685 227.063 61.5935C227.221 61.7551 227.379 62.0785 227.852 62.0785C228.326 62.0785 228.484 61.9168 228.642 61.5935L230.852 57.3903L231.326 56.097L231.168 60.3002V69.03C231.168 69.8383 231.326 69.9999 232.116 69.9999C232.905 69.9999 233.063 69.8383 233.063 69.03V52.5404C232.905 51.7321 232.747 51.5704 232.274 51.5704Z" fill="white"/>
<path d="M193.114 51.7321H190.114C189.482 51.7321 189.324 51.8937 189.324 52.702V69.03C189.324 69.8383 189.482 70 190.272 70C191.061 70 191.219 69.8383 191.219 69.03V63.8568H193.272C195.482 63.8568 196.588 62.4018 196.588 60.4619V55.127C196.588 53.0254 195.325 51.7321 193.114 51.7321ZM193.114 53.5103C194.219 53.5103 194.535 53.9953 194.535 55.127V60.4619C194.535 61.5935 194.061 62.0785 193.114 62.0785H191.535C191.219 62.0785 191.061 61.9168 191.061 61.5935V53.9953C191.061 53.672 191.061 53.5103 191.535 53.5103H193.114Z" fill="white"/>
<path d="M206.693 69.03C206.22 63.5334 205.904 60.1385 205.588 54.642C205.43 52.702 204.167 51.5704 202.43 51.5704C200.693 51.5704 199.43 52.702 199.272 54.642C198.798 60.1385 198.483 63.5334 198.167 69.03C198.167 69.8383 198.167 69.9999 198.956 69.9999C199.746 69.9999 199.904 69.8383 199.904 69.03C200.062 67.7367 200.062 66.605 200.219 65.6351C200.219 65.3117 200.377 65.1501 200.693 65.1501H203.851C204.167 65.1501 204.325 65.3117 204.325 65.6351C204.483 66.7667 204.483 67.8983 204.641 69.03C204.641 69.8383 204.799 69.9999 205.588 69.9999C206.536 69.9999 206.693 69.8383 206.693 69.03ZM201.009 63.3718C200.693 63.3718 200.535 63.2101 200.535 62.8868C200.693 60.3002 201.009 57.8752 201.167 54.642C201.167 53.8337 201.798 53.3487 202.43 53.3487C203.062 53.3487 203.535 53.8337 203.693 54.642C204.009 57.8752 204.167 60.3002 204.325 62.8868C204.325 63.2101 204.325 63.3718 203.851 63.3718H201.009Z" fill="white"/>
<path d="M243.958 51.5704C243.642 51.5704 243.169 51.7321 242.853 52.5404L238.274 62.8868L237.484 65.3117L237.642 60.6235V52.5404C237.642 51.7321 237.484 51.5704 236.695 51.5704C235.905 51.5704 235.747 51.7321 235.747 52.5404V69.03C235.747 69.6766 235.905 69.9999 236.537 69.9999C236.853 69.9999 237.326 69.8383 237.642 69.03L242.221 58.8452L243.011 56.4203L242.853 60.9468V69.03C242.853 69.8383 243.011 69.9999 243.8 69.9999C244.59 69.9999 244.748 69.8383 244.748 69.03V52.5404C244.59 51.7321 244.59 51.5704 243.958 51.5704Z" fill="white"/>
<path d="M283.592 59.4919C284.065 58.8452 284.381 58.1986 284.381 57.2286V54.9653C284.381 53.0254 283.276 51.5704 281.065 51.5704H277.907C277.276 51.5704 277.118 51.7321 277.118 52.3787C277.118 52.3787 277.118 63.2101 277.118 68.7066C277.118 69.3533 277.276 69.515 277.907 69.515H281.539C283.75 69.515 284.855 68.06 284.855 66.12V61.9168C284.855 61.1085 284.381 60.1385 283.592 59.4919ZM278.855 53.9953C278.855 53.672 278.855 53.5104 279.328 53.5104H280.907C282.013 53.5104 282.328 53.9953 282.328 55.127V57.3903C282.328 58.5219 281.855 59.0069 280.907 59.0069H279.328C279.012 59.0069 278.855 58.8452 278.855 58.5219V53.9953ZM282.96 66.4434C282.96 67.575 282.486 68.06 281.539 68.06H279.486C279.17 68.06 279.012 67.8983 279.012 67.575V61.1085C279.012 60.7852 279.012 60.6235 279.486 60.6235H281.539C282.644 60.6235 282.96 61.1085 282.96 62.2401V66.4434Z" fill="white"/>
<path d="M218.852 51.5704C218.378 51.5704 218.062 51.8937 217.747 52.5404C216.168 55.4503 214.904 58.0369 214.904 58.0369L214.431 59.3302L213.957 58.0369C213.957 58.0369 212.536 55.4503 211.115 52.5404C210.799 51.8937 210.325 51.5704 210.009 51.5704C209.378 51.5704 209.22 51.7321 209.22 52.5404V69.03C209.22 69.8383 209.378 69.9999 210.167 69.9999C210.957 69.9999 211.115 69.8383 211.115 69.03V60.3002L210.957 56.097L211.43 57.3903C211.43 57.3903 212.378 59.1685 213.641 61.5935C213.799 61.7551 213.957 62.0785 214.431 62.0785C214.904 62.0785 215.062 61.9168 215.22 61.5935L217.431 57.3903L217.904 56.097L217.747 60.3002V69.03C217.747 69.8383 217.904 69.9999 218.694 69.9999C219.483 69.9999 219.641 69.8383 219.641 69.03V52.5404C219.641 51.7321 219.483 51.5704 218.852 51.5704Z" fill="white"/>
</svg>
