<svg width="120" height="120" viewBox="0 0 120 120" fill="none" xmlns="http://www.w3.org/2000/svg">
<path d="M0 0L22.5 22.5H120L97.5 0H0Z" fill="white"/>
<path d="M120 22.5H97.5V0L120 22.5Z" fill="#CCCCCC"/>
<path d="M16.3638 50.4188C14.858 51.551 12.9735 50.9852 10.7101 48.7214C8.44759 46.4589 6.57034 43.2693 5.07834 39.1527C3.64536 35.355 2.88789 31.3358 2.84021 27.277C2.84021 23.5026 3.59338 21.0496 5.09971 19.918C6.60605 18.7864 8.4904 19.352 10.7528 21.6148C13.0153 23.8773 14.8927 27.0672 16.3851 31.1845C17.8176 34.9821 18.5748 39.001 18.6226 43.0595C18.6226 46.8345 17.8697 49.2876 16.3638 50.4188ZM7.52827 37.815C8.16849 39.9076 9.27044 41.8297 10.7528 43.4394C12.0534 44.7401 13.1211 45.0139 13.9559 44.261C14.7906 43.508 15.2079 41.9691 15.2077 39.6443C15.1851 37.2155 14.7549 34.8078 13.9352 32.5215C13.2946 30.4288 12.1925 28.5065 10.7101 26.8965C9.40886 25.5952 8.34115 25.3214 7.50702 26.0749C6.6729 26.8285 6.25582 28.3676 6.25578 30.6922C6.27828 33.121 6.70842 35.5288 7.52827 37.8152V37.815Z" fill="#CCCCCC"/>
<path d="M4.55835 76.8461V72.0266L12.7255 63.3932L4.81298 55.4807V49.8875L16.9255 62V66.9183L8.75879 75.552L16.925 83.7188V89.2133L4.55835 76.8461Z" fill="#CCCCCC"/>
<path d="M30 60V33.75H52.5V39H35.7743V44.5875H46.2774V49.8375H35.7743V60H30Z" fill="white"/>
<path d="M59.9987 60V33.75H82.4987V39H65.773V44.5875H76.276V49.8375H65.773V60H59.9987Z" fill="white"/>
<path d="M51.2063 90.1742C48.5062 92.7123 44.9408 94.1269 41.235 94.1304C37.5292 94.1339 33.9612 92.726 31.2563 90.1929C28.7153 87.6304 27.2927 84.1658 27.2997 80.5571C27.3067 76.9483 28.7428 73.4893 31.2938 70.9367C33.9939 68.3986 37.5593 66.984 41.2651 66.9805C44.9709 66.977 48.5389 68.3849 51.2438 70.9179C53.7847 73.4804 55.2073 76.945 55.2003 80.5536C55.1933 84.1623 53.7572 87.6213 51.2063 90.1739V90.1742ZM35.5875 86.4059C36.3113 87.1894 37.1944 87.809 38.1775 88.2229C39.1605 88.6369 40.2208 88.8357 41.287 88.8059C42.3466 88.8385 43.4007 88.6427 44.3778 88.2318C45.355 87.8208 46.2322 87.2043 46.9499 86.4242C48.382 84.8063 49.1694 82.7184 49.1624 80.5577C49.1555 78.397 48.3546 76.3142 46.912 74.7055C46.1882 73.9221 45.3051 73.3026 44.322 72.8887C43.339 72.4747 42.2788 72.2759 41.2125 72.3055C40.153 72.2728 39.0989 72.4686 38.1218 72.8796C37.1447 73.2905 36.2674 73.907 35.5497 74.6871C34.1177 76.305 33.3302 78.3929 33.3372 80.5536C33.3442 82.7143 34.1451 84.7971 35.5875 86.4058V86.4059Z" fill="white"/>
<path d="M59.9987 93.75V67.5H65.3237L77.6241 83.6625V67.5H83.3241V93.75H78.4116L65.6991 77.0625V93.75H59.9987Z" fill="white"/>
<path d="M90 93.75V67.5H112.313V72.6375H95.7375V77.9625H106.25V83.1H95.7375V88.6125H112.5V93.75H90Z" fill="white"/>
<path d="M41.3301 116.915V119.743H29.9972V117.493L35.7812 112.031C36.2734 111.597 36.693 111.087 37.0241 110.521C37.2294 110.134 37.3395 109.705 37.3453 109.267C37.3603 109.005 37.3127 108.743 37.2066 108.503C37.1005 108.263 36.9388 108.051 36.7349 107.885C36.209 107.529 35.5791 107.36 34.9456 107.404C34.3325 107.394 33.7251 107.522 33.1679 107.778C32.6352 108.032 32.1775 108.42 31.8395 108.904L29.3118 107.275C29.9182 106.386 30.7549 105.679 31.7324 105.229C32.8399 104.72 34.0484 104.467 35.2674 104.49C36.2693 104.469 37.2648 104.655 38.1914 105.037C38.973 105.358 39.6486 105.893 40.1407 106.579C40.6127 107.269 40.8563 108.09 40.8372 108.925C40.8418 109.718 40.6659 110.502 40.3228 111.217C39.8109 112.144 39.136 112.972 38.3305 113.659L34.8816 116.915L41.3301 116.915Z" fill="white"/>
<path d="M74.4853 116.915V119.743H63.1525V117.493L68.9365 112.031C69.4287 111.597 69.8483 111.087 70.1794 110.521C70.3847 110.134 70.4948 109.705 70.5006 109.267C70.5155 109.005 70.468 108.743 70.3619 108.503C70.2558 108.263 70.0941 108.051 69.8902 107.885C69.3643 107.529 68.7344 107.36 68.1009 107.404C67.4877 107.394 66.8803 107.522 66.3232 107.778C65.7905 108.032 65.3328 108.42 64.9948 108.904L62.467 107.275C63.0735 106.386 63.9102 105.679 64.8877 105.229C65.9952 104.72 67.2037 104.467 68.4227 104.49C69.4246 104.469 70.4201 104.655 71.3467 105.037C72.1283 105.358 72.8038 105.893 73.296 106.579C73.768 107.269 74.0116 108.09 73.9925 108.925C73.9972 109.718 73.8212 110.502 73.4781 111.217C72.9662 112.144 72.2913 112.972 71.4857 113.659L68.0369 116.915L74.4853 116.915Z" fill="white"/>
<path d="M89.1341 116.915V119.743H77.8012V117.493L83.5852 112.031C84.0774 111.597 84.497 111.087 84.8281 110.521C85.0333 110.134 85.1434 109.705 85.1493 109.267C85.1642 109.005 85.1167 108.743 85.0106 108.503C84.9045 108.263 84.7428 108.051 84.5389 107.885C84.013 107.529 83.3831 107.36 82.7495 107.404C82.1364 107.394 81.529 107.522 80.9719 107.778C80.4392 108.032 79.9815 108.42 79.6435 108.904L77.1157 107.275C77.7222 106.387 78.5589 105.679 79.5364 105.229C80.6439 104.72 81.8524 104.467 83.0714 104.49C84.0733 104.469 85.0688 104.655 85.9953 105.037C86.777 105.358 87.4525 105.892 87.9447 106.579C88.4166 107.269 88.6603 108.09 88.6412 108.925C88.6458 109.718 88.4699 110.502 88.1268 111.217C87.6149 112.144 86.9399 112.972 86.1344 113.659L82.6856 116.915L89.1341 116.915Z" fill="white"/>
<path d="M47.7044 118.993C46.4898 118.356 45.4743 117.396 44.7693 116.219C44.0746 115.01 43.7091 113.64 43.7091 112.245C43.7091 110.851 44.0746 109.481 44.7693 108.271C45.4747 107.095 46.4901 106.135 47.7044 105.497C49.007 104.835 50.4474 104.49 51.9085 104.49C53.3696 104.49 54.81 104.835 56.1127 105.497C57.3357 106.149 58.3585 107.122 59.0716 108.31C59.7847 109.499 60.1614 110.859 60.1614 112.245C60.1614 113.631 59.7847 114.991 59.0716 116.18C58.3585 117.369 57.3357 118.341 56.1127 118.993C54.8102 119.655 53.3697 120.001 51.9085 120.001C50.4474 120.001 49.0069 119.655 47.7044 118.993V118.993ZM54.3135 116.434C55.0211 116.033 55.6033 115.443 55.9951 114.73C56.3961 113.963 56.6055 113.111 56.6055 112.245C56.6055 111.38 56.3961 110.527 55.9951 109.761C55.6035 109.048 55.0212 108.458 54.3135 108.057C53.5772 107.657 52.7523 107.447 51.914 107.447C51.0758 107.447 50.2509 107.657 49.5146 108.057C48.8066 108.458 48.2243 109.048 47.833 109.761C47.432 110.527 47.2226 111.38 47.2226 112.245C47.2226 113.111 47.432 113.963 47.833 114.73C48.2245 115.443 48.8068 116.033 49.5146 116.434C50.2509 116.834 51.0758 117.044 51.914 117.044C52.7523 117.044 53.5772 116.834 54.3135 116.434V116.434Z" fill="white"/>
</svg>
