<svg fill="none" xmlns="http://www.w3.org/2000/svg" viewBox="0 0 258 39">
  <path d="M25.158 20.975a3.52 3.52 0 0 1-3.527 3.523H7.204V16.68h14.444a3.529 3.529 0 0 1 3.526 3.522l-.016.772Zm5.894-5.962a9.209 9.209 0 0 0-3.66-3.837 10.7 10.7 0 0 0-5.414-1.348H0V39h7.204v-7.66h14.78a10.734 10.734 0 0 0 5.414-1.344 9.163 9.163 0 0 0 3.644-3.863 12.49 12.49 0 0 0 1.31-5.832 10.375 10.375 0 0 0-1.31-5.288M61.1 20.727a4.17 4.17 0 0 0-1.013-2.944 3.35 3.35 0 0 0-2.583-1.099H43.129v14.679h-7.204V.258h7.204v9.656h14.78c1.893-.038 3.76.427 5.413 1.347a9.189 9.189 0 0 1 3.661 3.86 12.49 12.49 0 0 1 1.31 5.831V31.37H61.07l.03-10.642ZM79.07 20.2a3.532 3.532 0 0 1 3.527-3.52H97.04v7.808H82.596a3.529 3.529 0 0 1-3.526-3.523V20.2Zm-5.894 5.963a9.244 9.244 0 0 0 3.66 3.836 10.734 10.734 0 0 0 5.413 1.344h21.969V.271h-7.204v9.574H82.233a10.701 10.701 0 0 0-5.413 1.347 9.162 9.162 0 0 0-3.634 3.853 12.49 12.49 0 0 0-1.31 5.832 10.397 10.397 0 0 0 1.31 5.292M25.119 4.407H0V6.61h25.119V4.407Z" fill="#fff"/>
  <path d="M104.22 34.593H79.102v2.204h25.118v-2.204Z" fill="red"/>
  <path d="M162.366 6.728a1.542 1.542 0 0 0 1.162-.471 1.96 1.96 0 0 0 0-2.519 1.545 1.545 0 0 0-1.162-.47h-3.131v3.46h3.131ZM156 13.737V.287h6.549a4.993 4.993 0 0 1 2.433.58 4.036 4.036 0 0 1 1.637 1.635c.404.76.605 1.61.586 2.47.021.869-.181 1.729-.586 2.498a4.03 4.03 0 0 1-1.637 1.655 5.028 5.028 0 0 1-2.433.576h-3.314v4.036H156ZM175.627 10.574a2.556 2.556 0 0 0 0-3.46 2.399 2.399 0 0 0-3.336 0 2.556 2.556 0 0 0 0 3.46 2.409 2.409 0 0 0 3.336 0Zm-4.437 2.699a4.912 4.912 0 0 1-1.928-1.825 5.225 5.225 0 0 1 0-5.21 4.912 4.912 0 0 1 1.928-1.826 6.107 6.107 0 0 1 5.538 0 4.912 4.912 0 0 1 1.928 1.825 5.225 5.225 0 0 1 0 5.21 4.912 4.912 0 0 1-1.928 1.826 6.108 6.108 0 0 1-5.538 0M182.784 13.387a3.675 3.675 0 0 1-1.507-1.308 2.765 2.765 0 0 1-.455-1.403h2.97a.893.893 0 0 0 .436.72c.383.24.832.354 1.283.326.421.03.843-.053 1.222-.239a.686.686 0 0 0 .131-1.164 2.005 2.005 0 0 0-.927-.307l-1.536-.233c-2.357-.342-3.536-1.316-3.536-2.92a2.561 2.561 0 0 1 .524-1.557 3.584 3.584 0 0 1 1.555-1.135 6.501 6.501 0 0 1 2.466-.422 5.742 5.742 0 0 1 2.485.49c.616.27 1.152.694 1.556 1.23.323.417.508.925.527 1.453h-2.947a.815.815 0 0 0-.436-.674 2.106 2.106 0 0 0-1.182-.288 2.056 2.056 0 0 0-1.12.258.74.74 0 0 0-.396.609c0 .37.393.615 1.172.73l1.618.228c2.303.32 3.454 1.346 3.454 3.078a2.548 2.548 0 0 1-.514 1.547c-.403.51-.942.896-1.555 1.115a6.968 6.968 0 0 1-2.557.412 5.875 5.875 0 0 1-2.728-.55M195.288 13.737h-3.052V3.925h3.052v9.812Zm.078-11.225h-3.192V0h3.192v2.512ZM201.806 13.737c-.982 0-1.732-.229-2.243-.69a2.544 2.544 0 0 1-.766-1.982V6.682h-1.608V3.935h1.618V.896h3.049v3.039h2.324v2.747h-2.324v3.784a.683.683 0 0 0 .163.52c.156.118.35.173.544.154h1.617v2.617l-2.374-.02ZM209.633 13.737h-3.052V3.925h3.052v9.812Zm.078-11.225h-3.192V0h3.192v2.512ZM218.593 13.744h-4.041l-3.454-9.803h3.15l2.122 6.287h.406l2.118-6.287h3.173l-3.474 9.803ZM230.338 7.941a2.183 2.183 0 0 0-.731-1.347 2.158 2.158 0 0 0-1.493-.54 2.333 2.333 0 0 0-1.578.54 2.454 2.454 0 0 0-.806 1.347h4.608Zm-4.987 5.332a4.987 4.987 0 0 1-1.939-1.825 5.154 5.154 0 0 1 0-5.21 4.987 4.987 0 0 1 1.939-1.826 5.76 5.76 0 0 1 2.77-.654c.926-.01 1.84.215 2.655.654a4.85 4.85 0 0 1 2.577 4.327 4.23 4.23 0 0 1-.101.959h-7.515c.077.536.359 1.023.786 1.357.451.366 1.017.56 1.598.546.405.012.807-.073 1.172-.248.271-.13.517-.306.727-.52h3.072a4 4 0 0 1-.809 1.364c-.464.52-1.032.94-1.667 1.23a5.61 5.61 0 0 1-2.495.52 5.76 5.76 0 0 1-2.77-.655M159.235 31.366H156V17.91h3.235v5.093h5.456V17.91h3.231v13.456h-3.231v-5.19h-5.456v5.19ZM176.278 28.808a1.731 1.731 0 0 0 .547-1.344v-.232h-1.86a2.082 2.082 0 0 0-1.182.278.891.891 0 0 0-.393.759.923.923 0 0 0 .354.762c.299.205.659.303 1.021.278a2.152 2.152 0 0 0 1.513-.5Zm-4.191 2.346a3.128 3.128 0 0 1-1.31-1.086 2.679 2.679 0 0 1-.455-1.528 2.862 2.862 0 0 1 1.09-2.345c.727-.589 1.778-.883 3.154-.883h2.262v-.177a1.375 1.375 0 0 0-.435-1.046 1.564 1.564 0 0 0-1.12-.412 1.661 1.661 0 0 0-.982.258 1.584 1.584 0 0 0-.528.605h-2.989a3.15 3.15 0 0 1 .655-1.537 3.992 3.992 0 0 1 1.535-1.18c.73-.317 1.52-.471 2.315-.452a5.617 5.617 0 0 1 2.437.497 3.926 3.926 0 0 1 1.604 1.357c.376.566.574 1.231.567 1.91v6.215h-2.646l-.203-.847h-.102a2.884 2.884 0 0 1-1.1.72 4.439 4.439 0 0 1-1.729.326 4.702 4.702 0 0 1-2.01-.402M184.518 30.895a4.998 4.998 0 0 1-1.939-1.828 5.147 5.147 0 0 1 0-5.207 5.01 5.01 0 0 1 1.939-1.828 5.758 5.758 0 0 1 2.77-.655 5.292 5.292 0 0 1 2.584.596 4.817 4.817 0 0 1 1.719 1.508c.402.573.678 1.225.808 1.913h-3.091a2.011 2.011 0 0 0-.655-.932 2.098 2.098 0 0 0-1.352-.396 2.297 2.297 0 0 0-2.186 1.47 2.35 2.35 0 0 0-.159.934 2.372 2.372 0 0 0 .675 1.74 2.271 2.271 0 0 0 1.67.683 1.944 1.944 0 0 0 2.02-1.386h3.092a5.03 5.03 0 0 1-.809 1.942 4.819 4.819 0 0 1-1.706 1.518 5.293 5.293 0 0 1-2.597.595 5.758 5.758 0 0 1-2.77-.654M197.533 31.366h-3.052V17.91h3.052v7.994l3.455-4.343h3.454l-3.896 4.804 4.099 5.001h-3.454l-3.658-4.536v4.536ZM216.809 28.387a3.58 3.58 0 0 0 1.837-.481 3.517 3.517 0 0 0 1.31-1.338 4.093 4.093 0 0 0 0-3.863 3.533 3.533 0 0 0-3.147-1.815h-2.02v7.497h2.02Zm-5.255 2.98V17.91h5.255a6.984 6.984 0 0 1 3.475.884 6.593 6.593 0 0 1 3.395 5.844 6.593 6.593 0 0 1-3.395 5.841 6.955 6.955 0 0 1-3.475.887h-5.255ZM231.245 28.808a1.741 1.741 0 0 0 .544-1.344v-.232h-1.854a2.065 2.065 0 0 0-1.182.278.883.883 0 0 0-.396.759.91.91 0 0 0 .354.762c.299.205.659.303 1.021.278a2.162 2.162 0 0 0 1.516-.5h-.003Zm-4.191 2.346a3.129 3.129 0 0 1-1.31-1.086 2.704 2.704 0 0 1-.455-1.528 2.857 2.857 0 0 1 1.093-2.345c.727-.589 1.777-.883 3.15-.883h2.263v-.177a1.389 1.389 0 0 0-.432-1.046 1.57 1.57 0 0 0-1.123-.412 1.673 1.673 0 0 0-.983.258 1.583 1.583 0 0 0-.527.605h-2.989a3.16 3.16 0 0 1 .654-1.537 3.939 3.939 0 0 1 1.536-1.18 5.483 5.483 0 0 1 2.312-.452 5.612 5.612 0 0 1 2.436.497c.65.297 1.205.766 1.605 1.357.377.565.575 1.231.566 1.91v6.215h-2.646l-.203-.847h-.101a2.89 2.89 0 0 1-1.1.72 4.419 4.419 0 0 1-1.729.326 4.706 4.706 0 0 1-2.011-.402M243.898 21.56h3.235l-4.384 11.65a3.277 3.277 0 0 1-1.061 1.528c-.437.314-1.107.471-2.011.471h-2.62v-2.672h2.08a.658.658 0 0 0 .655-.402l.121-.308-4.162-10.267h3.232l2.364 6.019h.403l2.148-6.018ZM249.749 31.01a3.706 3.706 0 0 1-1.507-1.309 2.756 2.756 0 0 1-.455-1.403h2.97a.9.9 0 0 0 .436.723c.383.24.832.354 1.283.327.422.028.843-.055 1.222-.242a.698.698 0 0 0 .396-.585.71.71 0 0 0-.265-.58c-.28-.177-.6-.282-.93-.303l-1.536-.233c-2.358-.346-3.536-1.32-3.533-2.92a2.547 2.547 0 0 1 .524-1.557 3.53 3.53 0 0 1 1.555-1.135 6.498 6.498 0 0 1 2.466-.422 5.747 5.747 0 0 1 2.485.487c.615.27 1.151.694 1.555 1.23.324.417.508.925.528 1.452h-2.947a.825.825 0 0 0-.436-.674 2.133 2.133 0 0 0-1.182-.287 2.025 2.025 0 0 0-1.12.261.725.725 0 0 0-.396.605c0 .37.39.615 1.172.73l1.618.232c2.303.32 3.454 1.345 3.454 3.074a2.54 2.54 0 0 1-.514 1.547c-.403.511-.942.898-1.555 1.116a6.984 6.984 0 0 1-2.558.412 5.876 5.876 0 0 1-2.727-.546" fill="#fff"/>
  <path fill-rule="evenodd" clip-rule="evenodd" d="M111 0h7v31h-4V4.133h-3V0Zm14 31h17V0h-21v4.133h4V31Z" fill="#fff"/>
</svg>
